<?xml version="1.0" encoding="utf-8"?>
<!-- Generator: Adobe Illustrator 24.2.3, SVG Export Plug-In . SVG Version: 6.00 Build 0)  -->
<svg version="1.1" id="Layer_1" xmlns="http://www.w3.org/2000/svg" xmlns:xlink="http://www.w3.org/1999/xlink" x="0px" y="0px"
	 viewBox="0 0 18 18" style="enable-background:new 0 0 18 18;" xml:space="preserve">
<style type="text/css">
	.st0{fill:none;}
	.st1{fill:#F8F8F8;}
</style>
<path class="st0" d="M0,0h18v18H0V0z"/>
<path class="st1" d="M9,1.5C4.9,1.5,1.5,4.9,1.5,9s3.4,7.5,7.5,7.5s7.5-3.4,7.5-7.5S13.1,1.5,9,1.5z M9.8,14.2H8.2v-1.5h1.5V14.2z
	 M11.3,8.4l-0.7,0.7c-0.5,0.5-0.9,1-0.9,2.1H8.2v-0.4c0-0.8,0.3-1.6,0.9-2.1l0.9-0.9c0.3-0.3,0.4-0.6,0.4-1.1c0-0.8-0.7-1.5-1.5-1.5
	S7.5,5.9,7.5,6.8H6c0-1.7,1.3-3,3-3s3,1.3,3,3C12,7.4,11.7,8,11.3,8.4z"/>
</svg>
